<?xml version="1.0" encoding="UTF-8" standalone="no"?>
<svg
   version="1.1"
   x="0px"
   y="0px"
   viewBox="0 0 479.5 480"
   xml:space="preserve"
   id="svg13"
   sodipodi:docname="skedula-logo.svg"
   inkscape:version="1.3.2 (091e20e, 2023-11-25, custom)"
   width="479.5"
   height="480"
   inkscape:export-filename="skedula-logo.png"
   inkscape:export-xdpi="96"
   inkscape:export-ydpi="96"
   xmlns:inkscape="http://www.inkscape.org/namespaces/inkscape"
   xmlns:sodipodi="http://sodipodi.sourceforge.net/DTD/sodipodi-0.dtd"
   xmlns="http://www.w3.org/2000/svg"
   xmlns:svg="http://www.w3.org/2000/svg"><defs
     id="defs13" /><sodipodi:namedview
     id="namedview13"
     pagecolor="#ffffff"
     bordercolor="#000000"
     borderopacity="0.25"
     inkscape:showpageshadow="2"
     inkscape:pageopacity="0.0"
     inkscape:pagecheckerboard="0"
     inkscape:deskcolor="#d1d1d1"
     inkscape:zoom="1.1288889"
     inkscape:cx="248.0315"
     inkscape:cy="260.43307"
     inkscape:window-width="2560"
     inkscape:window-height="1373"
     inkscape:window-x="-9"
     inkscape:window-y="-9"
     inkscape:window-maximized="1"
     inkscape:current-layer="svg13" /><g
     id="g22"
     transform="matrix(1.060259,0,0,1.0605177,-24.224704,-28.44542)"
     style="fill:#44aa00;stroke-width:0.943051"><path
       id="path22"
       style="fill:#44aa00;fill-rule:evenodd;stroke-width:22.7275;stroke-linecap:round;stroke-linejoin:round;paint-order:stroke markers fill"
       d="M 283.50986,94.577607 A 69.075606,78.471593 0 0 0 248.9719,26.822202 69.075606,78.471593 0 0 0 214.43395,94.577607 69.075606,78.471593 0 0 0 249.11417,162.42237 69.075606,78.471593 0 0 0 283.50986,94.577607 Z" /><rect
       style="fill:#44aa00;fill-rule:evenodd;stroke-width:22.7275;stroke-linecap:round;stroke-linejoin:round;paint-order:stroke markers fill"
       id="rect17"
       width="22.972898"
       height="283.86267"
       x="240.54033"
       y="195.56866"
       rx="15.090652"
       ry="15.086971" /><path
       d="m 272.20234,422.12361 56.05276,37.87808 c 18.30673,12.37012 40.33607,16.87062 62.02664,12.67304 19.88605,-3.84838 37.3075,-14.58492 49.601,-30.45064 l -56.20859,-37.98217 c -36.23084,-24.48049 -84.99937,-16.13355 -111.47181,17.88169"
       id="path13"
       style="fill:#44aa00;stroke-width:0.943051" /><path
       d="m 231.29737,421.45047 -58.58651,33.82725 c -19.1342,11.04712 -41.42624,13.98151 -62.76642,8.26341 -19.564841,-5.24239 -36.185013,-17.18182 -47.328009,-33.87568 l 58.749289,-33.92007 c 37.86837,-21.86216 85.92612,-10.09381 109.93165,25.70509"
       id="path16"
       style="fill:#44aa00;stroke-width:0.943051" /><path
       d="m 272.45836,325.29399 63.94638,22.07989 c 20.88457,7.21049 43.32809,5.85603 63.19316,-3.81246 18.21242,-8.86413 32.26142,-23.74384 40.02968,-42.25074 l -64.12384,-22.1401 c -41.33232,-14.26911 -86.27875,6.41564 -103.04538,46.12341"
       id="path18"
       style="fill:#44aa00;stroke-width:0.943051" /><path
       d="m 229.48546,324.54793 -65.34536,17.51131 c -21.34142,5.71841 -43.63336,2.7832 -62.76644,-8.2633 C 83.832309,323.66843 70.868607,307.83421 64.425989,288.82516 L 129.9526,271.26632 c 42.23639,-11.31617 85.61073,12.48944 99.53286,53.28161"
       id="path19"
       style="fill:#44aa00;stroke-width:0.943051" /><path
       d="m 278.41054,233.85215 67.48215,4.77699 c 22.03916,1.55948 43.36738,-5.55764 60.05317,-20.03815 15.29764,-13.27581 25.01678,-31.28465 27.73041,-51.17152 l -67.66916,-4.78922 c -43.61707,-3.08531 -81.67838,28.52761 -87.59657,71.2219"
       id="path20"
       style="fill:#44aa00;stroke-width:0.943051" /><path
       d="m 222.04928,232.63296 -67.65103,0.002 c -22.09426,0 -42.86693,-8.60478 -58.489023,-24.22688 -14.322452,-14.32246 -22.746228,-32.9724 -24.049415,-53.0012 l 67.838408,-0.001 c 43.72606,0.001 79.46111,34.22156 82.35106,77.22708"
       id="path21"
       style="fill:#44aa00;stroke-width:0.943051" /></g><rect
     style="fill:none;fill-rule:evenodd;stroke:#808080;stroke-width:0.5;stroke-linecap:round;stroke-linejoin:round;stroke-dasharray:1.5, 1.5;stroke-dashoffset:0;paint-order:stroke markers fill"
     id="rect22"
     width="479"
     height="479"
     x="0.25"
     y="0.49999908" /></svg>
